<svg width="101" height="19" viewBox="0 0 101 19" fill="none" xmlns="http://www.w3.org/2000/svg"><g clip-path="url(#a)" fill="#111"><path d="M1.264 17.465A6.843 6.843 0 0 1 0 13.165V6.792a6.926 6.926 0 0 1 1.185-4.376c.87-.998 2.213-1.46 4.189-1.46s3.24.462 4.03 1.306a5.405 5.405 0 0 1 1.186 3.762V7.56H6.718V5.794a3.68 3.68 0 0 0-.238-1.536 1.12 1.12 0 0 0-.456-.471 1.165 1.165 0 0 0-.65-.143c-.553 0-.948.154-1.106.538A4.828 4.828 0 0 0 4.03 5.87v8.215a3.1 3.1 0 0 0 .316 1.612c.158.384.553.538 1.106.538s.87-.154 1.027-.538c.18-.518.26-1.065.238-1.612v-1.843h3.872v1.536a5.756 5.756 0 0 1-1.185 3.839C8.615 18.539 7.27 19 5.374 19c-1.897-.077-3.32-.537-4.11-1.535ZM15.253 1.187h4.504l3.32 17.506H19.44l-.632-3.685h-2.608l-.632 3.685h-3.715l3.399-17.506Zm3.24 11.517-.948-6.833-.949 6.833h1.897ZM25.843 4.105h-2.687V1.187h9.404v2.841h-2.687v14.665h-4.03V4.105ZM39.752 1.187h6.955V3.03h-4.505V8.79h3.635v1.766h-3.635v6.449h4.505v1.766h-7.034V1.187h.079ZM48.761 1.187H50.5l5.137 11.594V1.187h2.055v17.506h-1.58L50.894 6.716v11.977h-2.134V1.187ZM60.063 1.187h6.954V3.03h-4.504V8.79h3.635v1.766h-3.635v6.449h4.504v1.766h-6.954V1.187ZM69.072 1.187h3.635a6.46 6.46 0 0 1 4.03 1.075c.87.691 1.265 1.92 1.265 3.532 0 2.227-.71 3.609-2.212 4.07l2.528 8.752h-2.45l-2.37-8.215h-1.976v8.215h-2.529V1.187h.079Zm3.477 7.525a3.529 3.529 0 0 0 2.292-.614c.474-.384.711-1.152.711-2.304a4.83 4.83 0 0 0-.237-1.689 1.973 1.973 0 0 0-.869-.921 3.696 3.696 0 0 0-1.739-.307h-1.106v5.758h.948v.077ZM81.163 17.387a7.587 7.587 0 0 1-1.106-4.453V7.099c-.02-1.113.114-2.223.395-3.302a3.909 3.909 0 0 1 1.502-1.996 5.281 5.281 0 0 1 2.924-.691c1.66 0 2.845.384 3.556 1.228a5.752 5.752 0 0 1 1.107 3.84v.614H87.17v-.538c.003-.643-.05-1.285-.158-1.92a1.53 1.53 0 0 0-.633-.997 2.497 2.497 0 0 0-1.501-.384 2.42 2.42 0 0 0-1.58.46c-.187.153-.338.34-.447.551a1.697 1.697 0 0 0-.186.678c-.104.686-.157 1.379-.158 2.073v6.526c-.058.994.103 1.99.474 2.918.316.614.949.844 1.897.844a1.96 1.96 0 0 0 1.092-.182 1.89 1.89 0 0 0 .805-.74c.417-.97.606-2.02.553-3.07v-1.229h-2.292v-1.766h4.584v8.676h-1.58l-.238-1.996a3.138 3.138 0 0 1-1.226 1.655 3.293 3.293 0 0 1-2.014.572 4.052 4.052 0 0 1-1.899-.352 3.931 3.931 0 0 1-1.5-1.184ZM94.678 12.55 90.805 1.264h2.371l2.766 8.446 2.687-8.446H101L97.127 12.55v6.143h-2.37V12.55h-.08Z"/></g><defs><clipPath id="a"><path fill="#fff" transform="translate(0 .957)" d="M0 0h101v17.966H0z"/></clipPath></defs></svg>