<svg width="190" height="38" viewBox="0 0 190 38" fill="none" xmlns="http://www.w3.org/2000/svg"><path d="M6.012 20.935V18.65a139.135 139.135 0 0 1 19.976-1.343c0 .606 0 1.222-.06 1.838 1.9-.86 3.896-1.477 5.943-1.838a16.767 16.767 0 0 0-6.767-8.285 16.248 16.248 0 0 0-10.306-2.398c-3.6.374-6.98 1.945-9.62 4.47a16.948 16.948 0 0 0-4.99 9.506l5.824.334ZM26.978 24.481c-1.149 1.293-1.376 1.213-1.376 3.486v9.275a16.692 16.692 0 0 0 5.425-6.052A17.08 17.08 0 0 0 33 23.237c-.013-1.051-.12-2.1-.317-3.132a32.856 32.856 0 0 0-5.705 4.375ZM6.299 25.987s-3.754-1.455-5.14-1.85A8.33 8.33 0 0 0 0 23.856a17.066 17.066 0 0 0 2.463 8.233A16.633 16.633 0 0 0 8.598 38L6.299 25.987Z" fill="#FDC305"/><path d="M26.038 17.297A92.52 92.52 0 0 0 24.65.657s-.139-1.304-.881-.243a14.583 14.583 0 0 0-1.189 3.981 68.295 68.295 0 0 0-12.647.344C9.15 2.02 7.774.758 7.11 1.01c-.664.253-.713 3.345-.713 3.345L6.071 18.6a139.094 139.094 0 0 1 19.967-1.303Z" fill="#F06351"/><path d="M12.29 14.145c0-.09.991.687 1.397.93.406.242.604.424.604.596s-.267.343-.623.343c-.357 0-.902-.12-.99-.272h1.217a8.34 8.34 0 0 1-1.604-1.597ZM19.699 14.256l-1.08 1.344c0 .06-.168.354.179.303.41-.062.814-.16 1.208-.293.109 0 .07-.192-.109-.172-.178.02-.683.051-.99.112l.832-1.274s.069-.13-.04-.02ZM16.59 20.41c.458-.207.838-.562 1.079-1.01.277-.658 0-.92-.436-1.011a2.367 2.367 0 0 0-1.723.343c-.387.364-.337.728-.05 1.01.348.27.727.494 1.13.668Z" fill="#000"/><path d="M16.193 21.672c-.111.231-.266.437-.456.607a1.693 1.693 0 0 1-.99.384 2.1 2.1 0 0 1-1.456-.435 2.289 2.289 0 0 1-.525-.444 1.059 1.059 0 0 0-.356-.263s.742 4.142 2.545 4.8c1.803.656 2.12-.759 2.179-1.143a5.758 5.758 0 0 0-.812-3.263c-.02-.313-.03-.111-.129-.243Z" fill="#F06351"/><path d="M14.569 22.824a3.364 3.364 0 0 1-1.3-.474 3.437 3.437 0 0 1-1.039-1.007.145.145 0 0 1 .076-.187.136.136 0 0 1 .153.032 3.22 3.22 0 0 0 2.09 1.313c.328-.025.646-.13.927-.306.28-.176.516-.417.687-.704l.139-.192.099.212s.366.768.99.808c.624.04 1.04-.414 1.595-1.293a.138.138 0 0 1 .198 0c.032.02.055.053.064.09a.154.154 0 0 1-.015.112c-.633 1.01-1.257 1.455-1.861 1.414a1.518 1.518 0 0 1-.642-.253 1.555 1.555 0 0 1-.468-.514 2.255 2.255 0 0 1-.74.67c-.294.165-.62.26-.953.28Z" fill="#000"/><path d="M25.988 19.116a58.7 58.7 0 0 0-5.021 5.244 31.579 31.579 0 0 1-5.24 4.94c-.217-.535-1.604-1.525-1.604-1.525s-3.1-2.162-5.13-3.86a34.1 34.1 0 0 1-3.1-3.03l-1.98-.112c2.861 4.25 7.05 7.384 11.884 8.892.852-.142 3.238-1.88 5.021-3.294a58.146 58.146 0 0 0 5.883-5.951c.498-.596.88-1.281 1.13-2.021-1.09.394-1.843.717-1.843.717Z" fill="#F06351"/><path d="M90.264 26.465a6.843 6.843 0 0 1-1.264-4.3v-6.373a6.926 6.926 0 0 1 1.186-4.376c.869-.998 2.212-1.459 4.188-1.459 1.976 0 3.24.46 4.03 1.305a5.405 5.405 0 0 1 1.186 3.762v1.536h-3.873v-1.766a3.677 3.677 0 0 0-.237-1.536c-.1-.197-.259-.362-.456-.471a1.165 1.165 0 0 0-.65-.143c-.553 0-.948.154-1.106.538a4.828 4.828 0 0 0-.237 1.689v8.215a3.101 3.101 0 0 0 .316 1.613c.158.383.553.537 1.106.537s.87-.154 1.027-.538c.18-.518.26-1.065.237-1.612v-1.842h3.873v1.535a5.756 5.756 0 0 1-1.186 3.839c-.79.921-2.133 1.382-4.03 1.382-1.897-.077-3.32-.537-4.11-1.535ZM104.253 10.188h4.504l3.32 17.505h-3.636l-.632-3.685h-2.608l-.632 3.685h-3.715l3.399-17.506Zm3.24 11.516-.948-6.833-.949 6.833h1.897ZM114.843 13.105h-2.687v-2.918h9.404v2.841h-2.687v14.665h-4.03V13.105ZM135.707 10.188v1.842h-4.505v5.759h3.635v1.765h-3.635v6.45h4.505v1.766h-7.034V10.188h7.034ZM137.761 10.188h1.739l5.137 11.593V10.188h2.055v17.505h-1.581l-5.216-11.977v11.977h-2.134V10.187ZM149.063 10.188h6.954v1.842h-4.504v5.759h3.635v1.765h-3.635v6.45h4.504v1.766h-6.954V10.188ZM161.707 10.188a6.461 6.461 0 0 1 4.031 1.074c.869.691 1.264 1.92 1.264 3.532 0 2.227-.711 3.609-2.212 4.07l2.528 8.752h-2.449l-2.371-8.215h-1.976v8.215h-2.529V10.188h3.714Zm-.158 7.524a3.528 3.528 0 0 0 2.292-.614c.474-.384.711-1.152.711-2.304a4.821 4.821 0 0 0-.237-1.689 1.972 1.972 0 0 0-.869-.921 3.696 3.696 0 0 0-1.739-.307h-1.106v5.758h.948v.077ZM170.164 26.387a7.582 7.582 0 0 1-1.107-4.453v-5.835a12.223 12.223 0 0 1 .395-3.302 3.914 3.914 0 0 1 1.502-1.996 5.28 5.28 0 0 1 2.924-.691c1.66 0 2.845.384 3.556 1.228a5.754 5.754 0 0 1 1.107 3.84v.614h-2.371v-.538c.003-.643-.05-1.285-.158-1.92a1.53 1.53 0 0 0-.633-.998 2.496 2.496 0 0 0-1.501-.383 2.42 2.42 0 0 0-1.581.46 1.732 1.732 0 0 0-.632 1.229c-.104.686-.157 1.379-.158 2.073v6.526c-.058.994.103 1.99.474 2.918.316.614.949.844 1.897.844.374.046.754-.018 1.092-.182.337-.164.617-.42.805-.74.417-.97.606-2.02.553-3.07v-1.229h-2.292v-1.766h4.584v8.676h-1.581l-.237-1.996a3.138 3.138 0 0 1-1.226 1.655 3.292 3.292 0 0 1-2.014.572 4.054 4.054 0 0 1-1.899-.352 3.927 3.927 0 0 1-1.499-1.184ZM183.678 21.55l-3.873-11.286h2.371l2.766 8.446 2.687-8.446H190l-3.872 11.286v6.143h-2.371V21.55h-.079Z" fill="#111"/></svg>