<svg xmlns="http://www.w3.org/2000/svg">
  <symbol viewBox="0 0 27 34" id="html-academy">
    <path d="M13.643.016 13.5 0 0 1.407v24.606L13.5 34 27 26.013V1.407L13.643.016Zm11.591 25L13.5 31.956 1.766 25.015V14.93l11.685 6.916.02 1.253-8.017-4.743-.011 1.225 8.046 4.809.02 1.286-8.045-4.758-.01 1.226L13.5 26.95l8.124-4.833V16.91l3.62-2.15-.01 10.256Zm0-11.564-3.22 1.88-1.482.875-7.065-4.187-.011 1.225 6.04 3.573-.053.031-.13.076-.86.492-4.986-2.948-.011 1.225 3.936 2.328-.933.61-.021.012-2.971-1.742-.011 1.225 1.947 1.135-1.988 1.186-11.618-6.872 11.638-6.958 11.8 6.834Zm0-1.225L13.44 5.31 1.766 12.22V2.99L13.5 1.764 25.234 2.99v9.237Z"/>
  </symbol>

  <symbol viewBox="0 0 28 22" id="telegram">
    <path fill-rule="evenodd" clip-rule="evenodd" d="M23.46 3.15c.18.15.27.38.23.61l-2.63 15.76a.66.66 0 0 1-1.01.44l-7.88-5.25a.66.66 0 0 1-.15-.96l2.61-3.26-4.36 2.9a.66.66 0 0 1-.65.05l-5.26-2.63a.66.66 0 0 1 .08-1.2l18.38-6.57a.66.66 0 0 1 .64.11Zm-17.13 7.17 3.53 1.77 7.56-5.04a.66.66 0 0 1 .88.96l-4.8 6 6.43 4.3 2.28-13.66-15.88 5.67Z"/>
  </symbol>

  <symbol viewBox="0 0 28 22" id="vk">
    <path d="M1 5.34c0-.86.52-1.32 1.55-1.38l3.97.02c.26 0 .44.13.53.38.4 1.26.86 2.34 1.37 3.25.5.92 1.17 1.97 1.99 3.16.07.15.18.23.34.23.13 0 .22-.06.3-.18l.07-.28.03-4.35c0-.3-.07-.5-.23-.6-.15-.1-.43-.18-.83-.23-.32-.05-.48-.23-.48-.55 0-.07 0-.12.02-.15.38-1.09 1.44-1.63 3.2-1.63l1.5-.03c.67 0 1.23.16 1.67.48.44.32.67.82.67 1.5v5.72c.12.08.24.12.34.12.27 0 .5-.15.7-.45 1.95-2.58 3-4.31 3.17-5.18a.3.3 0 0 1 .05-.13c.12-.25.33-.47.61-.65.29-.19.53-.31.75-.38a.55.55 0 0 1 .24-.05h4.13l.26.03c.36 0 .63.16.83.47.07.1.12.21.15.33a2.4 2.4 0 0 1 .06.55v.18a6.11 6.11 0 0 1-.94 2.2 23.4 23.4 0 0 1-1.93 2.53c-.79.9-1.27 1.5-1.47 1.78a.93.93 0 0 0-.24.56c0 .13.07.28.21.45l3.9 4.63c.2.26.31.56.31.88 0 .38-.16.7-.48.95-.32.25-.7.4-1.14.43l-.46.02h-4.04c-.02 0-.06 0-.11.02a.86.86 0 0 1-.1.01c-.4 0-.76-.16-1.1-.48-.12-.13-.96-1.12-2.5-2.97a1.39 1.39 0 0 0-.38-.32 38.47 38.47 0 0 0-.53 2.24l-.08.42a1.4 1.4 0 0 1-1.12 1.06l-.37.02h-2.61c-1.48 0-2.95-.63-4.41-1.9a19.3 19.3 0 0 1-3.96-4.95 47.51 47.51 0 0 1-3.28-7.05 1.92 1.92 0 0 1-.13-.73Zm16.01 6.51c-.37 0-.7-.1-1.01-.29a.9.9 0 0 1-.45-.79v-5.78c0-.34-.1-.58-.27-.72-.18-.14-.49-.21-.93-.21l-1.52.05c-.76 0-1.34.12-1.73.37.78.36 1.17.93 1.17 1.71v4.43a1.5 1.5 0 0 1-.53 1.04 1.6 1.6 0 0 1-1.07.42c-.53 0-.94-.24-1.22-.73a26.16 26.16 0 0 1-3.1-5.63l-.23-.66-3.55-.02c-.23 0-.36.01-.38.03-.03.03-.04.1-.04.22 0 .15.01.3.05.48l.56 1.4c1.49 3.64 3.11 6.51 4.86 8.6 1.75 2.1 3.47 3.15 5.16 3.15h2.66c.1 0 .19-.03.24-.09.05-.06.1-.17.13-.34l.06-.25.5-2.21c.15-.3.27-.5.38-.6.2-.2.42-.28.69-.28.43 0 .86.24 1.3.73l2.27 2.71c.14.22.3.33.45.33h4.4c.53 0 .8-.13.8-.38a.47.47 0 0 0-.08-.25l-3.87-4.55c-.3-.35-.45-.73-.45-1.13 0-.4.14-.8.43-1.16.23-.34.68-.9 1.34-1.67.67-.78 1.25-1.51 1.75-2.19.5-.68.82-1.3.98-1.85l.08-.33a.37.37 0 0 1-.02-.16.54.54 0 0 0-.03-.19h-4.18c-.27.1-.48.25-.64.45l-.16.48c-.45 1.16-1.6 2.94-3.5 5.36-.36.33-.8.5-1.3.5Z"/>
  </symbol>

  <symbol viewBox="0 0 28 22" id="youtube">
    <path d="m17.85 10.8-5.24-3.5a.65.65 0 0 0-1.01.55v6.98a.65.65 0 0 0 1.01.54l5.24-3.49a.65.65 0 0 0 0-1.09Zm-4.94 2.8v-4.53l3.4 2.27-3.4 2.27Zm12.48-8.56a2.4 2.4 0 0 0-1.45-1.63c-3.72-1.43-9.69-1.41-9.94-1.41s-6.22-.02-9.94 1.4a2.4 2.4 0 0 0-1.45 1.64 25.32 25.32 0 0 0-.61 6.3c0 3.26.33 5.22.61 6.3a2.4 2.4 0 0 0 1.45 1.63c3.72 1.43 9.69 1.4 9.94 1.4h.08c.75 0 6.31-.04 9.86-1.4a2.4 2.4 0 0 0 1.45-1.64c.28-1.07.61-3.03.61-6.3 0-3.25-.33-5.22-.61-6.29Zm-1.27 12.27a1.1 1.1 0 0 1-.65.74c-3.5 1.34-9.4 1.32-9.47 1.32-.07 0-5.98.02-9.47-1.32a1.09 1.09 0 0 1-.65-.74c-.27-1-.57-2.85-.57-5.97 0-3.12.3-4.97.57-5.97a1.1 1.1 0 0 1 .65-.74c3.5-1.34 9.4-1.32 9.47-1.32.07 0 5.98-.02 9.47 1.32a1.1 1.1 0 0 1 .65.74c.27 1 .57 2.85.57 5.97 0 3.12-.3 4.96-.57 5.97Z"/>
  </symbol>

  <symbol viewBox="0 0 128 24" id="catenergy">
    <path d="M1.624 21.957A9.428 9.428 0 0 1 .02 16.238V7.762A9.559 9.559 0 0 1 1.523 1.94C2.625.613 4.327 0 6.831 0c2.503 0 4.106.613 5.107 1.736A7.433 7.433 0 0 1 13.44 6.74v2.043H8.533V6.434a5.116 5.116 0 0 0-.3-2.043 1.46 1.46 0 0 0-.579-.627 1.42 1.42 0 0 0-.823-.19c-.701 0-1.202.205-1.402.715a6.72 6.72 0 0 0-.3 2.247v10.928a4.3 4.3 0 0 0 .4 2.145c.2.51.701.714 1.402.714s1.102-.204 1.302-.715c.227-.69.33-1.417.3-2.144v-2.451h4.907v2.042a7.922 7.922 0 0 1-1.502 5.107C10.937 23.387 9.234 24 6.831 24c-2.403-.102-4.206-.715-5.207-2.043ZM19.348.306h5.708l4.206 23.285h-4.606l-.801-4.902H20.55l-.801 4.902h-4.707L19.348.306Zm4.106 15.32-1.202-9.09-1.201 9.09h2.403ZM32.767 4.187h-3.405V.307H41.28v3.778h-3.405v19.506h-5.107V4.188ZM50.392.306h8.812v2.451h-5.708v7.66h4.606v2.349h-4.606v8.579h5.708v2.349H50.29V.306h.1ZM61.808.306h2.203l6.509 15.422V.306h2.603v23.285h-2.002L64.51 7.66V23.59h-2.703V.306ZM76.128.306h8.812v2.451h-5.708v7.66h4.606v2.349h-4.606v8.579h5.708v2.349h-8.812V.306ZM87.543.306h4.607a7.896 7.896 0 0 1 5.107 1.43c1.102.92 1.602 2.553 1.602 4.698 0 2.962-.901 4.8-2.804 5.413l3.205 11.642h-3.105l-3.004-10.927h-2.503v10.927h-3.205V.306h.1Zm4.407 10.009a4.313 4.313 0 0 0 2.904-.817c.6-.51.901-1.532.901-3.064a6.722 6.722 0 0 0-.3-2.247 2.576 2.576 0 0 0-1.102-1.225 4.488 4.488 0 0 0-2.203-.409h-1.402v7.66h1.202v.102ZM102.865 21.855a10.485 10.485 0 0 1-1.402-5.923V8.17c-.025-1.48.144-2.957.501-4.391a5.186 5.186 0 0 1 1.902-2.656 6.438 6.438 0 0 1 3.705-.919c2.103 0 3.606.51 4.507 1.634a7.93 7.93 0 0 1 1.402 5.107v.817h-3.004v-.715c.004-.855-.063-1.71-.201-2.553a2.045 2.045 0 0 0-.801-1.328 3.05 3.05 0 0 0-1.903-.51 2.961 2.961 0 0 0-2.002.612 2.331 2.331 0 0 0-.801 1.634 19.568 19.568 0 0 0-.201 2.758v8.68a9.433 9.433 0 0 0 .601 3.881c.401.817 1.202 1.124 2.403 1.124.475.06.956-.024 1.384-.242.428-.218.782-.56 1.02-.984a9.572 9.572 0 0 0 .701-4.085V14.4h-2.904v-2.349h5.808v11.54h-2.003l-.3-2.655a4.172 4.172 0 0 1-1.553 2.202 4.03 4.03 0 0 1-2.553.76 4.924 4.924 0 0 1-2.406-.468 5.032 5.032 0 0 1-1.9-1.575ZM119.989 15.421 115.082.408h3.004l3.505 11.235L124.996.408H128l-4.907 15.013v8.17h-3.004v-8.17h-.1Z"/>
  </symbol>

  <symbol viewBox="0 0 40 40" id="demo-progress-range">
    <rect x="1" y="1" width="38" height="38" rx="19"/>
    <rect x="1" y="1" width="38" height="38" rx="19" stroke="#666" stroke-width="2" fill="#fff"/>
    <path d="m16 11-8 9 8 9V11ZM32 20l-8-9v18l8-9Z"/>
  </symbol>

  <symbol viewBox="0 0 20 20" id="email">
    <path  stroke-width="1.3" d="M1.111 6v8M18.111 6v8M.461 13.35h18M.461 1.35h18M17.811 3.182l-8.35 6.495-8.35-6.495V1.65h16.7v1.532Z"/>
  </symbol>

  <symbol viewBox="0 0 20 20" id="phone">
    <path d="M10.002 10h8.502m0 0-2.5-2.5m2.5 2.5-2.5 2.5m-7.502-10v5h-3v5h3v5h-2.5C4.5 17.5 3.5 16.5 3.5 15V5c0-1.5 1-2.5 2.5-2.5h2.5Z" stroke-linecap="round" stroke-linejoin="round"/>
  </symbol>
</svg>
